<?xml version="1.0" encoding="utf-8"?>
<!-- Generator: Adobe Illustrator 26.0.3, SVG Export Plug-In . SVG Version: 6.00 Build 0)  -->
<svg version="1.1" id="zenforms" xmlns="http://www.w3.org/2000/svg" xmlns:xlink="http://www.w3.org/1999/xlink" x="0px" y="0px"
	 width="1000px" height="1000px" viewBox="0 0 1000 1000" style="enable-background:new 0 0 1000 1000;" xml:space="preserve">
<style type="text/css">
	.st0{fill:url(#SVGID_1_);}
	.st1{fill:#FFFFFF;}
</style>
<radialGradient id="SVGID_1_" cx="107.7516" cy="46.9071" r="1025.5778" gradientTransform="matrix(0.3416 0.9398 -1.8175 0.6607 156.1902 -85.3516)" gradientUnits="userSpaceOnUse">
	<stop  offset="0" style="stop-color:#008B97"/>
	<stop  offset="0.1166" style="stop-color:#0A9099"/>
	<stop  offset="0.3124" style="stop-color:#249C9D"/>
	<stop  offset="0.5633" style="stop-color:#4EB1A4"/>
	<stop  offset="0.8568" style="stop-color:#88CDAD"/>
	<stop  offset="0.9755" style="stop-color:#A2DAB1"/>
</radialGradient>
<path class="st0" d="M803,1000H197C88.2,1000,0,911.8,0,803V197C0,88.2,88.2,0,197,0h606c108.8,0,197,88.2,197,197v606
	C1000,911.8,911.8,1000,803,1000z"/>
<path class="st1" d="M681,194.8h-36.5L610,166.7c-16-13-36-20.1-56.6-20.1H446.7c-20.6,0-40.6,7.1-56.6,20.1l-34.5,28.1H319
	c-47,0-85.2,38.2-85.2,85.2v454.4c0,47,38.2,85.2,85.2,85.2h362c47,0,85.2-38.2,85.2-85.2V280C766.2,233,728,194.8,681,194.8z
	 M714.1,734.4c0,18.3-14.9,33.2-33.2,33.2H319c-18.3,0-33.2-14.9-33.2-33.2V280c0-18.3,14.9-33.2,33.2-33.2h362
	c18.3,0,33.2,14.9,33.2,33.2V734.4z M665.9,375.4c0,12.9-10.5,23.4-23.4,23.4h-186c-12.9,0-23.4-10.5-23.4-23.4s10.5-23.4,23.4-23.4
	h186C655.4,352,665.9,362.5,665.9,375.4z M399.4,375.4c0,18.3-14.8,33.1-33.1,33.1c-18.3,0-33.1-14.8-33.1-33.1
	c0-18.3,14.8-33.1,33.1-33.1C384.5,342.3,399.4,357.1,399.4,375.4z M665.9,508.4c0,12.9-10.5,23.4-23.4,23.4h-186
	c-12.9,0-23.4-10.5-23.4-23.4c0-12.9,10.5-23.4,23.4-23.4h186C655.4,484.9,665.9,495.4,665.9,508.4z M399.4,508.4
	c0,18.3-14.8,33.1-33.1,33.1c-18.3,0-33.1-14.8-33.1-33.1c0-18.3,14.8-33.1,33.1-33.1C384.5,475.2,399.4,490.1,399.4,508.4z
	 M665.9,641.4c0,12.9-10.5,23.4-23.4,23.4h-186c-12.9,0-23.4-10.5-23.4-23.4s10.5-23.4,23.4-23.4h186
	C655.4,617.9,665.9,628.4,665.9,641.4z M399.4,641.4c0,18.3-14.8,33.1-33.1,33.1c-18.3,0-33.1-14.8-33.1-33.1s14.8-33.1,33.1-33.1
	C384.5,608.2,399.4,623.1,399.4,641.4z"/>
</svg>
